<?xml version="1.0" encoding="iso-8859-1"?>
<!-- Generator: Adobe Illustrator 19.2.0, SVG Export Plug-In . SVG Version: 6.00 Build 0)  -->
<svg xmlns="http://www.w3.org/2000/svg" xmlns:xlink="http://www.w3.org/1999/xlink" version="1.1" id="Layer_1" x="0px" y="0px" viewBox="0 0 40 40" style="enable-background:new 0 0 40 40;" xml:space="preserve">
<path style="fill:#4788C7;" d="M38.5,21h-29C9.224,21,9,20.776,9,20.5v0C9,20.224,9.224,20,9.5,20h29c0.276,0,0.5,0.224,0.5,0.5v0  C39,20.776,38.776,21,38.5,21z"/>
<g>
	<rect x="1.5" y="18.5" style="fill:#98CCFD;" width="4" height="4"/>
	<g>
		<path style="fill:#4788C7;" d="M5,19v3H2v-3H5 M6,18H1v5h5V18L6,18z"/>
	</g>
</g>
<path style="fill:#4788C7;" d="M38.5,10h-29C9.224,10,9,9.776,9,9.5v0C9,9.224,9.224,9,9.5,9h29C38.776,9,39,9.224,39,9.5v0  C39,9.776,38.776,10,38.5,10z"/>
<g>
	<rect x="1.5" y="7.5" style="fill:#98CCFD;" width="4" height="4"/>
	<g>
		<path style="fill:#4788C7;" d="M5,8v3H2V8H5 M6,7H1v5h5V7L6,7z"/>
	</g>
</g>
<path style="fill:#4788C7;" d="M38.5,32h-29C9.224,32,9,31.776,9,31.5v0C9,31.224,9.224,31,9.5,31h29c0.276,0,0.5,0.224,0.5,0.5v0  C39,31.776,38.776,32,38.5,32z"/>
<g>
	<rect x="1.5" y="29.5" style="fill:#DFF0FE;" width="4" height="4"/>
	<g>
		<path style="fill:#4788C7;" d="M5,30v3H2v-3H5 M6,29H1v5h5V29L6,29z"/>
	</g>
</g>
<rect x="3" y="9" style="fill:#4788C7;" width="1" height="1"/>
<rect x="3" y="20" style="fill:#4788C7;" width="1" height="1"/>
</svg>
