<?xml version="1.0" encoding="iso-8859-1"?>
<!-- Generator: Adobe Illustrator 20.1.0, SVG Export Plug-In . SVG Version: 6.00 Build 0)  -->
<svg xmlns="http://www.w3.org/2000/svg" xmlns:xlink="http://www.w3.org/1999/xlink" version="1.1" id="&#1057;&#1083;&#1086;&#1081;_1" x="0px" y="0px" viewBox="0 0 64 64" style="enable-background:new 0 0 64 64;" xml:space="preserve">
<linearGradient id="SVGID_1__43605" gradientUnits="userSpaceOnUse" x1="11" y1="50" x2="11" y2="55.8713" spreadMethod="reflect">
	<stop offset="0" style="stop-color:#6DC7FF"/>
	<stop offset="1" style="stop-color:#E6ABFF"/>
</linearGradient>
<rect x="10" y="51" style="fill:url(#SVGID_1__43605);" width="2" height="4"/>
<linearGradient id="SVGID_2__43605" gradientUnits="userSpaceOnUse" x1="25" y1="41.1667" x2="25" y2="55.4515" spreadMethod="reflect">
	<stop offset="0" style="stop-color:#6DC7FF"/>
	<stop offset="1" style="stop-color:#E6ABFF"/>
</linearGradient>
<rect x="24" y="41" style="fill:url(#SVGID_2__43605);" width="2" height="14"/>
<linearGradient id="SVGID_3__43605" gradientUnits="userSpaceOnUse" x1="39" y1="48.3333" x2="39" y2="55.3353" spreadMethod="reflect">
	<stop offset="0" style="stop-color:#6DC7FF"/>
	<stop offset="1" style="stop-color:#E6ABFF"/>
</linearGradient>
<rect x="38" y="49" style="fill:url(#SVGID_3__43605);" width="2" height="6"/>
<linearGradient id="SVGID_4__43605" gradientUnits="userSpaceOnUse" x1="53" y1="32.1667" x2="53" y2="55.6879" spreadMethod="reflect">
	<stop offset="0" style="stop-color:#6DC7FF"/>
	<stop offset="1" style="stop-color:#E6ABFF"/>
</linearGradient>
<rect x="52" y="33" style="fill:url(#SVGID_4__43605);" width="2" height="22"/>
<linearGradient id="SVGID_5__43605" gradientUnits="userSpaceOnUse" x1="25" y1="15.8333" x2="25" y2="20" spreadMethod="reflect">
	<stop offset="0" style="stop-color:#1A6DFF"/>
	<stop offset="1" style="stop-color:#C822FF"/>
</linearGradient>
<circle style="fill:url(#SVGID_5__43605);" cx="25" cy="18" r="1.5"/>
<linearGradient id="SVGID_6__43605" gradientUnits="userSpaceOnUse" x1="53" y1="10.6667" x2="53" y2="13.8377" spreadMethod="reflect">
	<stop offset="0" style="stop-color:#1A6DFF"/>
	<stop offset="1" style="stop-color:#C822FF"/>
</linearGradient>
<circle style="fill:url(#SVGID_6__43605);" cx="53" cy="12" r="1.5"/>
<linearGradient id="SVGID_7__43605" gradientUnits="userSpaceOnUse" x1="11" y1="6.6667" x2="11" y2="57.3336" spreadMethod="reflect">
	<stop offset="0" style="stop-color:#1A6DFF"/>
	<stop offset="1" style="stop-color:#C822FF"/>
</linearGradient>
<path style="fill:url(#SVGID_7__43605);" d="M14,43H8c-1.103,0-2,0.897-2,2v12h10V45C16,43.897,15.103,43,14,43z M14,45v2H8v-2H14z M8,55  v-6h6v6H8z"/>
<linearGradient id="SVGID_8__43605" gradientUnits="userSpaceOnUse" x1="25" y1="6.6667" x2="25" y2="57.3336" spreadMethod="reflect">
	<stop offset="0" style="stop-color:#1A6DFF"/>
	<stop offset="1" style="stop-color:#C822FF"/>
</linearGradient>
<path style="fill:url(#SVGID_8__43605);" d="M28,33h-6c-1.103,0-2,0.897-2,2v22h10V35C30,33.897,29.103,33,28,33z M28,35v2h-6v-2H28z   M22,55V39h6v16H22z"/>
<linearGradient id="SVGID_9__43605" gradientUnits="userSpaceOnUse" x1="39" y1="6.6667" x2="39" y2="57.3336" spreadMethod="reflect">
	<stop offset="0" style="stop-color:#1A6DFF"/>
	<stop offset="1" style="stop-color:#C822FF"/>
</linearGradient>
<path style="fill:url(#SVGID_9__43605);" d="M42,41h-6c-1.103,0-2,0.897-2,2v14h10V43C44,41.897,43.103,41,42,41z M42,43v2h-6v-2H42z   M36,55v-8h6v8H36z"/>
<linearGradient id="SVGID_10__43605" gradientUnits="userSpaceOnUse" x1="53" y1="6.6667" x2="53" y2="57.3336" spreadMethod="reflect">
	<stop offset="0" style="stop-color:#1A6DFF"/>
	<stop offset="1" style="stop-color:#C822FF"/>
</linearGradient>
<path style="fill:url(#SVGID_10__43605);" d="M56,25h-6c-1.103,0-2,0.897-2,2v30h10V27C58,25.897,57.103,25,56,25z M56,27v2h-6v-2H56z   M50,55V31h6v24H50z"/>
<linearGradient id="SVGID_11__43605" gradientUnits="userSpaceOnUse" x1="32" y1="6.6667" x2="32" y2="57.3336" spreadMethod="reflect">
	<stop offset="0" style="stop-color:#1A6DFF"/>
	<stop offset="1" style="stop-color:#C822FF"/>
</linearGradient>
<path style="fill:url(#SVGID_11__43605);" d="M51.048,16.602C51.648,16.858,52.308,17,53,17c2.757,0,5-2.243,5-5s-2.243-5-5-5  s-5,2.243-5,5c0,1.344,0.539,2.56,1.405,3.46l-7.743,10.324C40.89,25.294,39.981,25,39,25c-1.195,0-2.278,0.438-3.139,1.14  l-6.661-5.449C29.701,19.912,30,18.992,30,18c0-2.757-2.243-5-5-5s-5,2.243-5,5c0,0.849,0.233,1.637,0.608,2.339l-6.58,5.71  C13.185,25.401,12.143,25,11,25c-2.757,0-5,2.243-5,5s2.243,5,5,5s5-2.243,5-5c0-0.89-0.253-1.715-0.663-2.44l6.547-5.682  C22.742,22.569,23.816,23,25,23c1.04,0,2.006-0.32,2.807-0.866l6.787,5.553C34.227,28.382,34,29.161,34,30c0,2.757,2.243,5,5,5  s5-2.243,5-5c0-1.049-0.327-2.02-0.881-2.825L51.048,16.602z M53,9c1.654,0,3,1.346,3,3s-1.346,3-3,3s-3-1.346-3-3S51.346,9,53,9z   M11,33c-1.654,0-3-1.346-3-3s1.346-3,3-3s3,1.346,3,3S12.654,33,11,33z M25,21c-1.654,0-3-1.346-3-3s1.346-3,3-3s3,1.346,3,3  S26.654,21,25,21z M39,33c-1.654,0-3-1.346-3-3s1.346-3,3-3s3,1.346,3,3S40.654,33,39,33z"/>
</svg>
