<?xml version="1.0" encoding="iso-8859-1"?>
<!-- Generator: Adobe Illustrator 21.0.2, SVG Export Plug-In . SVG Version: 6.00 Build 0)  -->
<svg xmlns="http://www.w3.org/2000/svg" xmlns:xlink="http://www.w3.org/1999/xlink" version="1.1" id="Layer_1" x="0px" y="0px" viewBox="0 0 40 40" style="enable-background:new 0 0 40 40;" xml:space="preserve">
<g>
	<path style="fill:#DFF0FE;" d="M3.69,35.5c-1.208,0-2.19-0.982-2.19-2.19V6.69c0-1.208,0.982-2.19,2.19-2.19H36.31   c1.208,0,2.19,0.982,2.19,2.19V33.31c0,1.208-0.982,2.19-2.19,2.19H3.69z"/>
	<g>
		<path style="fill:#4788C7;" d="M36.31,5C37.242,5,38,5.758,38,6.69V33.31c0,0.932-0.758,1.69-1.69,1.69H3.69    C2.758,35,2,34.242,2,33.31V6.69C2,5.758,2.758,5,3.69,5H36.31 M36.31,4H3.69C2.205,4,1,5.205,1,6.69V33.31    C1,34.795,2.205,36,3.69,36H36.31c1.486,0,2.69-1.205,2.69-2.69V6.69C39,5.205,37.795,4,36.31,4L36.31,4z"/>
	</g>
</g>
<line style="fill:none;stroke:#4788C7;stroke-linecap:round;stroke-miterlimit:10;" x1="9.5" y1="14.5" x2="16.5" y2="14.5"/>
<line style="fill:none;stroke:#4788C7;stroke-linecap:round;stroke-miterlimit:10;" x1="6.5" y1="14.5" x2="6.5" y2="14.5"/>
<line style="fill:none;stroke:#4788C7;stroke-linecap:round;stroke-miterlimit:10;" x1="9.5" y1="18.5" x2="16.5" y2="18.5"/>
<line style="fill:none;stroke:#4788C7;stroke-linecap:round;stroke-miterlimit:10;" x1="6.5" y1="18.5" x2="6.5" y2="18.5"/>
<line style="fill:none;stroke:#4788C7;stroke-linecap:round;stroke-miterlimit:10;" x1="9.5" y1="22.5" x2="16.5" y2="22.5"/>
<line style="fill:none;stroke:#4788C7;stroke-linecap:round;stroke-miterlimit:10;" x1="6.5" y1="22.5" x2="6.5" y2="22.5"/>
<line style="fill:none;stroke:#4788C7;stroke-linecap:round;stroke-miterlimit:10;" x1="9.5" y1="26.5" x2="16.5" y2="26.5"/>
<line style="fill:none;stroke:#4788C7;stroke-linecap:round;stroke-miterlimit:10;" x1="6.5" y1="26.5" x2="6.5" y2="26.5"/>
<line style="fill:none;stroke:#4788C7;stroke-linecap:round;stroke-miterlimit:10;" x1="26.5" y1="14.5" x2="33.5" y2="14.5"/>
<line style="fill:none;stroke:#4788C7;stroke-linecap:round;stroke-miterlimit:10;" x1="23.5" y1="14.5" x2="23.5" y2="14.5"/>
<line style="fill:none;stroke:#4788C7;stroke-linecap:round;stroke-miterlimit:10;" x1="26.5" y1="18.5" x2="33.5" y2="18.5"/>
<line style="fill:none;stroke:#4788C7;stroke-linecap:round;stroke-miterlimit:10;" x1="23.5" y1="18.5" x2="23.5" y2="18.5"/>
<line style="fill:none;stroke:#4788C7;stroke-linecap:round;stroke-miterlimit:10;" x1="26.5" y1="22.5" x2="33.5" y2="22.5"/>
<line style="fill:none;stroke:#4788C7;stroke-linecap:round;stroke-miterlimit:10;" x1="23.5" y1="22.5" x2="23.5" y2="22.5"/>
<line style="fill:none;stroke:#4788C7;stroke-linecap:round;stroke-miterlimit:10;" x1="26.5" y1="26.5" x2="33.5" y2="26.5"/>
<line style="fill:none;stroke:#4788C7;stroke-linecap:round;stroke-miterlimit:10;" x1="23.5" y1="26.5" x2="23.5" y2="26.5"/>
</svg>
