<?xml version="1.0" encoding="iso-8859-1"?>
<!-- Generator: Adobe Illustrator 19.2.0, SVG Export Plug-In . SVG Version: 6.00 Build 0)  -->
<svg xmlns="http://www.w3.org/2000/svg" xmlns:xlink="http://www.w3.org/1999/xlink" version="1.1" id="Layer_1" x="0px" y="0px" viewBox="0 0 40 40" style="enable-background:new 0 0 40 40;" xml:space="preserve">
<g>
	<path style="fill:#4788C7;" d="M31,9v22H9V9H31 M32,8H8v24h24V8L32,8z"/>
</g>
<g>
	<rect x="2.5" y="2.5" style="fill:#98CCFD;" width="12" height="12"/>
	<g>
		<path style="fill:#4788C7;" d="M14,3v11H3V3H14 M15,2H2v13h13V2L15,2z"/>
	</g>
</g>
<g>
	<rect x="25.5" y="2.5" style="fill:#DFF0FE;" width="12" height="12"/>
	<g>
		<path style="fill:#4788C7;" d="M37,3v11H26V3H37 M38,2H25v13h13V2L38,2z"/>
	</g>
</g>
<g>
	<rect x="2.5" y="25.5" style="fill:#DFF0FE;" width="12" height="12"/>
	<g>
		<path style="fill:#4788C7;" d="M14,26v11H3V26H14 M15,25H2v13h13V25L15,25z"/>
	</g>
</g>
<g>
	<rect x="25.5" y="25.5" style="fill:#DFF0FE;" width="12" height="12"/>
	<g>
		<path style="fill:#4788C7;" d="M37,26v11H26V26H37 M38,25H25v13h13V25L38,25z"/>
	</g>
</g>
</svg>
