<?xml version="1.0" encoding="iso-8859-1"?>
<!-- Generator: Adobe Illustrator 19.2.0, SVG Export Plug-In . SVG Version: 6.00 Build 0)  -->
<svg xmlns="http://www.w3.org/2000/svg" xmlns:xlink="http://www.w3.org/1999/xlink" version="1.1" id="Layer_1" x="0px" y="0px" viewBox="0 0 40 40" style="enable-background:new 0 0 40 40;" xml:space="preserve">
<g>
	<polygon style="fill:#DFF0FE;" points="5.687,36.5 28.255,3.5 34.313,3.5 11.744,36.5  "/>
	<path style="fill:#4788C7;" d="M33.366,4L11.48,36H6.634L28.519,4H33.366 M35.261,3h-7.269L4.739,37h7.269L35.261,3L35.261,3z"/>
</g>
<g>
	<path style="fill:#DFF0FE;" d="M30,36.5c-3.584,0-6.5-2.916-6.5-6.5v-1c0-3.584,2.916-6.5,6.5-6.5s6.5,2.916,6.5,6.5v1   C36.5,33.584,33.584,36.5,30,36.5z M30,26.5c-1.355,0-2.5,1.145-2.5,2.5v1c0,1.355,1.145,2.5,2.5,2.5s2.5-1.145,2.5-2.5v-1   C32.5,27.645,31.355,26.5,30,26.5z"/>
	<path style="fill:#4788C7;" d="M30,23c3.308,0,6,2.692,6,6v1c0,3.308-2.692,6-6,6s-6-2.692-6-6v-1C24,25.692,26.692,23,30,23    M30,33c1.626,0,3-1.374,3-3v-1c0-1.626-1.374-3-3-3s-3,1.374-3,3v1C27,31.626,28.374,33,30,33 M30,22c-3.85,0-7,3.15-7,7v1   c0,3.85,3.15,7,7,7s7-3.15,7-7v-1C37,25.15,33.85,22,30,22L30,22z M30,32c-1.08,0-2-0.92-2-2v-1c0-1.08,0.92-2,2-2s2,0.92,2,2v1   C32,31.08,31.08,32,30,32L30,32z"/>
</g>
<g>
	<path style="fill:#DFF0FE;" d="M10,17.5c-3.584,0-6.5-2.916-6.5-6.5v-1c0-3.584,2.916-6.5,6.5-6.5s6.5,2.916,6.5,6.5v1   C16.5,14.584,13.584,17.5,10,17.5z M10,7.5c-1.355,0-2.5,1.145-2.5,2.5v1c0,1.355,1.145,2.5,2.5,2.5s2.5-1.145,2.5-2.5v-1   C12.5,8.645,11.355,7.5,10,7.5z"/>
	<path style="fill:#4788C7;" d="M10,4c3.308,0,6,2.692,6,6v1c0,3.308-2.692,6-6,6s-6-2.692-6-6v-1C4,6.692,6.692,4,10,4 M10,14   c1.626,0,3-1.374,3-3v-1c0-1.626-1.374-3-3-3s-3,1.374-3,3v1C7,12.626,8.374,14,10,14 M10,3c-3.85,0-7,3.15-7,7v1   c0,3.85,3.15,7,7,7s7-3.15,7-7v-1C17,6.15,13.85,3,10,3L10,3z M10,13c-1.08,0-2-0.92-2-2v-1c0-1.08,0.92-2,2-2s2,0.92,2,2v1   C12,12.08,11.08,13,10,13L10,13z"/>
</g>
</svg>
