<!-- <svg width='2rem' xmlns="http://www.w3.org/2000/svg" viewBox="0 0 384 512"><path fill="#ffff" d="M64 0C28.7 0 0 28.7 0 64V448c0 35.3 28.7 64 64 64H320c35.3 0 64-28.7 64-64V160H256c-17.7 0-32-14.3-32-32V0H64zM256 0V128H384L256 0zM64 80c0-8.8 7.2-16 16-16h64c8.8 0 16 7.2 16 16s-7.2 16-16 16H80c-8.8 0-16-7.2-16-16zm0 64c0-8.8 7.2-16 16-16h64c8.8 0 16 7.2 16 16s-7.2 16-16 16H80c-8.8 0-16-7.2-16-16zm128 72c8.8 0 16 7.2 16 16v17.3c8.5 1.2 16.7 3.1 24.1 5.1c8.5 2.3 13.6 11 11.3 19.6s-11 13.6-19.6 11.3c-11.1-3-22-5.2-32.1-5.3c-8.4-.1-17.4 1.8-23.6 5.5c-5.7 3.4-8.1 7.3-8.1 12.8c0 3.7 1.3 6.5 7.3 10.1c6.9 4.1 16.6 7.1 29.2 10.9l.5 .1 0 0 0 0c11.3 3.4 25.3 7.6 36.3 14.6c12.1 7.6 22.4 19.7 22.7 38.2c.3 19.3-9.6 33.3-22.9 41.6c-7.7 4.8-16.4 7.6-25.1 9.1V440c0 8.8-7.2 16-16 16s-16-7.2-16-16V422.2c-11.2-2.1-21.7-5.7-30.9-8.9l0 0 0 0c-2.1-.7-4.2-1.4-6.2-2.1c-8.4-2.8-12.9-11.9-10.1-20.2s11.9-12.9 20.2-10.1c2.5 .8 4.8 1.6 7.1 2.4l0 0 0 0 0 0c13.6 4.6 24.6 8.4 36.3 8.7c9.1 .3 17.9-1.7 23.7-5.3c5.1-3.2 7.9-7.3 7.8-14c-.1-4.6-1.8-7.8-7.7-11.6c-6.8-4.3-16.5-7.4-29-11.2l-1.6-.5 0 0c-11-3.3-24.3-7.3-34.8-13.7c-12-7.2-22.6-18.9-22.7-37.3c-.1-19.4 10.8-32.8 23.8-40.5c7.5-4.4 15.8-7.2 24.1-8.7V232c0-8.8 7.2-16 16-16z"/></svg> -->



<svg id="SvgjsSvg1159" width="3rem" height="3rem" xmlns="http://www.w3.org/2000/svg" version="1.1" xmlns:xlink="http://www.w3.org/1999/xlink" xmlns:svgjs="http://svgjs.com/svgjs"><defs id="SvgjsDefs1160"></defs><g id="SvgjsG1161"><svg xmlns="http://www.w3.org/2000/svg" data-name="Layer 1" viewBox="0 0 512 512" width="3rem" height="3rem"><path fill="#ffffff" d="M392.83,102.5v372a30,30,0,0,1-30,30h-311a30,30,0,0,1-30-30V37.5a30,30,0,0,1,30-30h246Z" class="colore1e1e3 svgShape"></path><path fill="#ffffff" d="M297.83,7.5h-30l95,95v372a30,30,0,0,1-30,30h30a30,30,0,0,0,30-30v-372Z" class="colordadadc svgShape"></path><path fill="#ffffff" d="M392.83,112.5h-65a30,30,0,0,1-30-30v-65l95,85Z" class="colordadadc svgShape"></path><path fill="#c8c5cc" d="M392.83,102.5h-65a30,30,0,0,1-30-30V7.5" class="colorc8c5cc svgShape"></path><rect width="60" height="60" x="66.83" y="191.5" fill="#feea9d" rx="15" class="colorfeea9d svgShape"></rect><path fill="#7C80E0" d="M111.83,191.5h-20a15,15,0,0,1,15,15v30a15,15,0,0,1-15,15h20a15,15,0,0,0,15-15v-30A15,15,0,0,0,111.83,191.5Z" class="colorfee27d svgShape"></path><rect width="60" height="60" x="66.83" y="296.5" fill="#feea9d" rx="15" class="colorfeea9d svgShape"></rect><path fill="#7C80E0" d="M111.83,296.5h-20a15,15,0,0,1,15,15v30a15,15,0,0,1-15,15h20a15,15,0,0,0,15-15v-30A15,15,0,0,0,111.83,296.5Z" class="colorfee27d svgShape"></path><rect width="60" height="60" x="66.83" y="401.5" fill="#feea9d" rx="15" class="colorfeea9d svgShape"></rect><path fill="#7C80E0" d="M111.83,401.5h-20a15,15,0,0,1,15,15v30a15,15,0,0,1-15,15h20a15,15,0,0,0,15-15v-30A15,15,0,0,0,111.83,401.5Z" class="colorfee27d svgShape"></path><path fill="#ffffff" d="M392.83,280.92V474.5a30,30,0,0,1-30,30H329.25a35.3,35.3,0,0,1-2.71-4.42,5.86,5.86,0,0,0-5.24-3.19H321c-.57,0-1.13,0-1.69,0h0a36.06,36.06,0,0,1-25.95-11.11,35.57,35.57,0,0,1-9.89-26.46,5.92,5.92,0,0,0-3.18-5.52,35.89,35.89,0,0,1-13.74-51.27,5.92,5.92,0,0,0,0-6.37,35.89,35.89,0,0,1,13.74-51.27,5.92,5.92,0,0,0,3.18-5.52A35.55,35.55,0,0,1,293.38,313a36.06,36.06,0,0,1,26-11.12c.56,0,1.12,0,1.69,0h.27a5.86,5.86,0,0,0,5.24-3.19A35.9,35.9,0,0,1,377.81,285a5.89,5.89,0,0,0,6.37,0A35.85,35.85,0,0,1,392.83,280.92Z" class="colordadadc svgShape"></path><path fill="#ffffff" d="M392.28,297.58h0a20.9,20.9,0,0,1,29.85,8h0a20.89,20.89,0,0,0,19.54,11.28h0a20.9,20.9,0,0,1,21.85,21.85h0a20.9,20.9,0,0,0,11.29,19.54h0a20.9,20.9,0,0,1,8,29.85h0a21,21,0,0,0,0,22.57h0a20.9,20.9,0,0,1-8,29.85h0a20.9,20.9,0,0,0-11.29,19.54h0a20.89,20.89,0,0,1-21.85,21.85h0a20.91,20.91,0,0,0-19.54,11.28h0a20.9,20.9,0,0,1-29.85,8h0a20.89,20.89,0,0,0-22.56,0h0a20.9,20.9,0,0,1-29.85-8h0a20.91,20.91,0,0,0-19.54-11.28h0a20.89,20.89,0,0,1-21.85-21.85h0a20.9,20.9,0,0,0-11.29-19.54h0a20.9,20.9,0,0,1-8-29.85h0a21,21,0,0,0,0-22.57h0a20.9,20.9,0,0,1,8-29.85h0a20.9,20.9,0,0,0,11.29-19.54h0a20.9,20.9,0,0,1,21.85-21.85h0a20.89,20.89,0,0,0,19.54-11.28h0a20.9,20.9,0,0,1,29.85-8h0A20.89,20.89,0,0,0,392.28,297.58Z" class="coloreb304a svgShape"></path><path fill="#b8b1ca" d="M482.8,410.67a21,21,0,0,1,0-22.57h0a20.9,20.9,0,0,0-8-29.85h0a20.9,20.9,0,0,1-11.29-19.54,20.9,20.9,0,0,0-21.85-21.85h0a20.89,20.89,0,0,1-19.54-11.28,20.9,20.9,0,0,0-29.85-8c-.43.28-.86.54-1.31.78a20.77,20.77,0,0,1,6.16,7.22,20.89,20.89,0,0,0,19.54,11.28h0a20.9,20.9,0,0,1,21.85,21.85,20.9,20.9,0,0,0,11.29,19.54h0a20.9,20.9,0,0,1,8,29.85h0a21,21,0,0,0,0,22.57h0a20.9,20.9,0,0,1-8,29.85h0a20.9,20.9,0,0,0-11.29,19.54,20.89,20.89,0,0,1-21.85,21.85h0a20.91,20.91,0,0,0-19.54,11.28,20.8,20.8,0,0,1-6.16,7.23c.45.24.88.49,1.31.77a20.9,20.9,0,0,0,29.85-8,20.91,20.91,0,0,1,19.54-11.28h0a20.89,20.89,0,0,0,21.85-21.85,20.9,20.9,0,0,1,11.29-19.54h0a20.9,20.9,0,0,0,8-29.85Z" class="colore4222e svgShape"></path><path fill="#7c80e0" d="M280,303.93H158.85a7.5,7.5,0,1,0,0,15H280a7.5,7.5,0,0,0,0-15Zm-128.68-97.5a7.5,7.5,0,0,0,7.5,7.5h186a7.5,7.5,0,0,0,0-15h-186A7.5,7.5,0,0,0,151.35,206.43ZM194.74,80.8h16.47V145c0,3,3.58,4.59,7.28,4.59s7.28-1.57,7.28-4.59V80.8h16.35c2.91,0,4.59-3.13,4.59-6.61,0-3.13-1.46-6.49-4.59-6.49H194.74c-3.13,0-4.59,3.36-4.59,6.49C190.15,77.78,191.83,80.8,194.74,80.8Zm90.13,148.13h-126a7.5,7.5,0,1,0,0,15h126a7.5,7.5,0,0,0,0-15Zm-126,120h81a7.5,7.5,0,0,0,0-15h-81a7.5,7.5,0,1,0,0,15Zm195.2,41.17a22.49,22.49,0,1,0-15.91-6.58A22.42,22.42,0,0,0,354.05,390.1Zm-5.31-27.79a7.51,7.51,0,1,1-2.19,5.3A7.45,7.45,0,0,1,348.74,362.31ZM152.63,137.47c-11.42,0-14.45-8.62-19-8.62-3.47,0-6.38,4.7-6.38,7.84,0,6.49,11.2,13.89,25.87,13.89,15.46,0,26.66-8.29,26.66-24.31,0-29-36-24.19-36-38.08,0-5.37,4.6-8.62,12.66-8.62,9.41,0,12,4.25,15.46,4.25,4,0,5.82-5.15,5.82-7.72,0-7.39-14.67-9-21.28-9-12.88,0-27.22,5.71-27.22,22.4,0,26.54,36,21.39,36,38.19C165.18,134.45,159.35,137.47,152.63,137.47Zm6.22,286.46H250a7.5,7.5,0,0,0,0-15H158.85a7.5,7.5,0,1,0,0,15Zm97.18,15H158.85a7.5,7.5,0,1,0,0,15H256a7.5,7.5,0,0,0,0-15Zm-142.18-150h-30a22.53,22.53,0,0,0-22.5,22.5v30a22.53,22.53,0,0,0,22.5,22.5h30a22.52,22.52,0,0,0,22.5-22.5v-30A22.52,22.52,0,0,0,113.85,288.93Zm7.5,52.5a7.5,7.5,0,0,1-7.5,7.5h-30a7.51,7.51,0,0,1-7.5-7.5v-30a7.51,7.51,0,0,1,7.5-7.5h30a7.5,7.5,0,0,1,7.5,7.5Zm-7.5-157.5h-30a22.53,22.53,0,0,0-22.5,22.5v30a22.53,22.53,0,0,0,22.5,22.5h30a22.52,22.52,0,0,0,22.5-22.5v-30A22.52,22.52,0,0,0,113.85,183.93Zm7.5,52.5a7.5,7.5,0,0,1-7.5,7.5h-30a7.51,7.51,0,0,1-7.5-7.5v-30a7.51,7.51,0,0,1,7.5-7.5h30a7.5,7.5,0,0,1,7.5,7.5Zm312.32,115.2a7.5,7.5,0,0,0-10.61,0l-85,85a7.5,7.5,0,1,0,10.61,10.6l85-85A7.49,7.49,0,0,0,433.67,351.63Zm57.47,40.45a28.39,28.39,0,0,0-10.87-40.56A13.45,13.45,0,0,1,473,339a28.41,28.41,0,0,0-29.69-29.69,13.43,13.43,0,0,1-12.53-7.23,28.34,28.34,0,0,0-28.47-15.17V102.43q0-.37,0-.75a5.07,5.07,0,0,0-.09-.54c0-.06,0-.13,0-.19,0-.21-.1-.43-.16-.64a.64.64,0,0,1,0-.07c-.07-.21-.14-.42-.23-.63,0,0,0,0,0,0a6.11,6.11,0,0,0-.27-.58l0-.09c-.09-.17-.2-.33-.3-.49s-.05-.1-.08-.14-.21-.29-.32-.43l-.12-.16a5.14,5.14,0,0,0-.38-.42l-.11-.12-95-95L305,2a5.22,5.22,0,0,0-.43-.39l-.16-.12L304,1.2l-.13-.09-.5-.29-.09,0c-.19-.09-.38-.19-.57-.27l-.06,0c-.21-.08-.42-.16-.63-.22l-.07,0c-.21-.06-.42-.12-.64-.16a1.13,1.13,0,0,0-.18,0L300.6,0a6.17,6.17,0,0,0-.75,0h-246a37.55,37.55,0,0,0-37.5,37.5v437a37.55,37.55,0,0,0,37.5,37.5h311a7.47,7.47,0,0,0,4.37-1.41,28.14,28.14,0,0,0,6.57-3.09,13.47,13.47,0,0,1,14.47,0,28.4,28.4,0,0,0,40.56-10.86,13.45,13.45,0,0,1,12.53-7.24A28.41,28.41,0,0,0,473,459.64a13.45,13.45,0,0,1,7.23-12.53,28.39,28.39,0,0,0,10.87-40.56A13.47,13.47,0,0,1,491.14,392.08ZM307.35,25.54l69.4,69.39h-46.9a22.53,22.53,0,0,1-22.5-22.5ZM53.85,496.93a22.53,22.53,0,0,1-22.5-22.5v-437a22.53,22.53,0,0,1,22.5-22.5h238.5v57.5a37.55,37.55,0,0,0,37.5,37.5h57.5V292.59a13.45,13.45,0,0,1-11.56-1.39,28.39,28.39,0,0,0-40.56,10.87,13.46,13.46,0,0,1-12.53,7.23A28.41,28.41,0,0,0,293,339a13.45,13.45,0,0,1-7.23,12.53,28.39,28.39,0,0,0-10.87,40.56,13.47,13.47,0,0,1,0,14.47,28.39,28.39,0,0,0,10.87,40.56A13.45,13.45,0,0,1,293,459.64a28.41,28.41,0,0,0,29.69,29.69,13.43,13.43,0,0,1,12.53,7.24c.07.12.14.24.2.36Zm426.33-71.58a13.28,13.28,0,0,1-6.79,8.44,28.46,28.46,0,0,0-15.33,26.55,13.4,13.4,0,0,1-14,14,28.53,28.53,0,0,0-26.56,15.33,13.39,13.39,0,0,1-19.14,5.12,28.46,28.46,0,0,0-30.65,0,13.4,13.4,0,0,1-19.14-5.13,28.49,28.49,0,0,0-25.24-15.36q-.66,0-1.32,0a13.4,13.4,0,0,1-14-14,28.46,28.46,0,0,0-15.33-26.55,13.4,13.4,0,0,1-5.12-19.15,28.46,28.46,0,0,0,0-30.65,13.39,13.39,0,0,1,5.12-19.14A28.48,28.48,0,0,0,308,338.29a13.41,13.41,0,0,1,14-14A28.48,28.48,0,0,0,348.56,309a13.38,13.38,0,0,1,19.14-5.13,28.48,28.48,0,0,0,29.09.92,7.49,7.49,0,0,0,3.25-1.83,13.36,13.36,0,0,1,17.45,6,28.51,28.51,0,0,0,26.56,15.32,13.41,13.41,0,0,1,14,14,28.48,28.48,0,0,0,15.33,26.56A13.39,13.39,0,0,1,478.51,384a28.52,28.52,0,0,0,0,30.66A13.2,13.2,0,0,1,480.18,425.35ZM87.56,150.24c14.78,0,26.32-6.94,26.32-25.65V111.26a4.5,4.5,0,0,0-4.59-4.7h-19c-2.91,0-4.48,2.91-4.48,5.71S87.34,118,90.25,118h9.07v6.61c0,8.74-4.48,12.88-11.76,12.88s-11.65-4.14-11.65-12.88V93.34c0-8.73,4.26-12.88,11.76-12.88,9.52,0,11.32,5.83,11.65,11.09.11,3.47,3.36,4.59,7.28,4.59,4.82,0,7.28-1.34,7.28-6.94,0-13.44-11.31-21.5-26.77-21.5-14.22,0-25.76,6.94-25.76,25.64v31.25C61.35,143.3,72.78,150.24,87.56,150.24Zm314.22,265.1a22.5,22.5,0,1,0,31.82,0A22.51,22.51,0,0,0,401.78,415.34ZM423,436.55a7.48,7.48,0,1,1,2.2-5.3A7.44,7.44,0,0,1,423,436.55ZM113.85,393.93h-30a22.53,22.53,0,0,0-22.5,22.5v30a22.53,22.53,0,0,0,22.5,22.5h30a22.52,22.52,0,0,0,22.5-22.5v-30A22.52,22.52,0,0,0,113.85,393.93Zm7.5,52.5a7.5,7.5,0,0,1-7.5,7.5h-30a7.51,7.51,0,0,1-7.5-7.5v-30a7.51,7.51,0,0,1,7.5-7.5h30a7.5,7.5,0,0,1,7.5,7.5Z" class="color3c3b41 svgShape"></path></svg></g></svg>